<svg xmlns="http://www.w3.org/2000/svg" viewBox="0 0 160 120" width="160" height="120">
  <ellipse cx="80" cy="103" rx="44" ry="5" fill="#000000" opacity="0.07"/>
  <rect x="40" y="42" width="80" height="56" rx="3" fill="#e7e0d4"/>
  <!-- ряд 1 -->
  <rect x="43" y="45" width="35" height="14" rx="1.5" fill="#b3552f"/>
  <rect x="80" y="45" width="37" height="14" rx="1.5" fill="#a44a2c"/>
  <!-- ряд 2 (со смещением) -->
  <rect x="43" y="62" width="16" height="14" rx="1.5" fill="#a44a2c"/>
  <rect x="61" y="62" width="35" height="14" rx="1.5" fill="#b3552f"/>
  <rect x="98" y="62" width="19" height="14" rx="1.5" fill="#a44a2c"/>
  <!-- ряд 3 -->
  <rect x="43" y="79" width="35" height="14" rx="1.5" fill="#a44a2c"/>
  <rect x="80" y="79" width="37" height="14" rx="1.5" fill="#b3552f"/>
  <!-- блики сверху кирпичей -->
  <g fill="#ffffff" opacity="0.18">
    <rect x="43" y="45" width="35" height="3" rx="1.5"/>
    <rect x="80" y="45" width="37" height="3" rx="1.5"/>
    <rect x="61" y="62" width="35" height="3" rx="1.5"/>
    <rect x="43" y="79" width="35" height="3" rx="1.5"/>
    <rect x="80" y="79" width="37" height="3" rx="1.5"/>
  </g>
</svg>
