<svg xmlns="http://www.w3.org/2000/svg" viewBox="0 0 160 120" width="160" height="120">
  <ellipse cx="80" cy="107" rx="46" ry="5" fill="#000000" opacity="0.07"/>
  <!-- тело мешка -->
  <rect x="50" y="34" width="60" height="71" rx="5" fill="#d8c4a0"/>
  <rect x="50" y="34" width="9" height="71" rx="4" fill="#000000" opacity="0.05"/>
  <rect x="101" y="34" width="9" height="71" rx="4" fill="#000000" opacity="0.10"/>
  <path d="M50 92 h60 v8 a5 5 0 0 1 -5 5 H55 a5 5 0 0 1 -5 -5 Z" fill="#c3ad85"/>
  <!-- завязанный верх -->
  <rect x="52" y="25" width="56" height="13" rx="3" fill="#c3ad85"/>
  <line x1="56" y1="31" x2="104" y2="31" stroke="#a4906b" stroke-width="1.4" stroke-dasharray="4 3"/>
  <!-- этикетка -->
  <rect x="56" y="50" width="48" height="32" rx="2" fill="#f4f1ea"/>
  <rect x="56" y="50" width="48" height="7" rx="2" fill="#bf4d23"/>
  <rect x="62" y="63" width="36" height="3.2" rx="1.6" fill="#b9b4a8"/>
  <rect x="62" y="70" width="28" height="3.2" rx="1.6" fill="#cfcabf"/>
  <rect x="62" y="76" width="20" height="3" rx="1.5" fill="#cfcabf"/>
</svg>
