<svg xmlns="http://www.w3.org/2000/svg" viewBox="0 0 160 120" width="160" height="120">
  <ellipse cx="80" cy="104" rx="46" ry="5" fill="#000000" opacity="0.07"/>
  <!-- профлист с вертикальными гофрами -->
  <g>
    <rect x="34" y="40" width="92" height="56" rx="3" fill="#356a45"/>
    <g fill="#3f7d52">
      <rect x="38" y="40" width="8" height="56"/>
      <rect x="54" y="40" width="8" height="56"/>
      <rect x="70" y="40" width="8" height="56"/>
      <rect x="86" y="40" width="8" height="56"/>
      <rect x="102" y="40" width="8" height="56"/>
      <rect x="118" y="40" width="6" height="56"/>
    </g>
    <g fill="#ffffff" opacity="0.18">
      <rect x="40" y="40" width="3" height="56"/>
      <rect x="56" y="40" width="3" height="56"/>
      <rect x="72" y="40" width="3" height="56"/>
      <rect x="88" y="40" width="3" height="56"/>
      <rect x="104" y="40" width="3" height="56"/>
      <rect x="120" y="40" width="3" height="56"/>
    </g>
    <!-- верхняя кромка -->
    <rect x="34" y="40" width="92" height="5" rx="3" fill="#2c5638"/>
    <!-- загнутый уголок -->
    <path d="M126 40 L126 54 L114 44 Z" fill="#5a9a6c"/>
  </g>
</svg>
