<svg xmlns="http://www.w3.org/2000/svg" viewBox="0 0 160 120" width="160" height="120">
  <ellipse cx="80" cy="107" rx="42" ry="5" fill="#000000" opacity="0.07"/>
  <!-- аккумулятор -->
  <rect x="50" y="86" width="34" height="16" rx="3" fill="#3a3a38"/>
  <!-- рукоятка -->
  <path d="M58 64 H80 V86 a4 4 0 0 1 -4 4 H62 a4 4 0 0 1 -4 -4 Z" fill="#a8431d"/>
  <!-- корпус -->
  <rect x="40" y="44" width="62" height="26" rx="8" fill="#bf4d23"/>
  <rect x="40" y="44" width="62" height="8" rx="8" fill="#ffffff" opacity="0.12"/>
  <!-- вентиляционные прорези -->
  <g stroke="#000000" opacity="0.18" stroke-width="2" stroke-linecap="round">
    <line x1="48" y1="58" x2="48" y2="64"/>
    <line x1="54" y1="58" x2="54" y2="64"/>
    <line x1="60" y1="58" x2="60" y2="64"/>
  </g>
  <!-- триггер -->
  <rect x="56" y="66" width="7" height="9" rx="2" fill="#2f2f2d"/>
  <!-- патрон -->
  <rect x="100" y="48" width="14" height="18" rx="2" fill="#8b9098"/>
  <rect x="100" y="48" width="14" height="4" fill="#e7eaee"/>
  <!-- сверло -->
  <line x1="114" y1="57" x2="134" y2="57" stroke="#b9bec6" stroke-width="3" stroke-linecap="round"/>
</svg>
